<svg xmlns="http://www.w3.org/2000/svg" width="19" height="25" viewBox="0 0 19 25">
  <g fill="none" fill-rule="evenodd">
    <path fill="#4CD964" d="M9.5001,5.0007 C9.5001,5.1557 9.5301,5.3037 9.5461,5.4547 C9.6971,5.4707 9.8451,5.5007 10.0001,5.5007 C12.4851,5.5007 14.5001,3.4857 14.5001,1.0007 C14.5001,0.8457 14.4701,0.6977 14.4541,0.5467 C14.3031,0.5307 14.1551,0.5007 14.0001,0.5007 C11.5151,0.5007 9.5001,2.5157 9.5001,5.0007"/>
    <path fill="#FF2C55" d="M12.5001,7.5007 C11.3261,7.5007 10.3291,7.9387 9.5001,8.6367 C8.6711,7.9387 7.6741,7.5007 6.5001,7.5007 C3.5001,7.5007 0.5001,10.3067 0.5001,15.0007 C0.5001,20.5007 3.1871,24.5007 6.5001,24.5007 C7.4381,24.5007 8.5181,23.7957 9.5001,22.7307 C10.4821,23.7957 11.5621,24.5007 12.5001,24.5007 C15.8131,24.5007 18.5001,20.5007 18.5001,15.0007 C18.5001,10.3067 15.5001,7.5007 12.5001,7.5007"/>
    <path fill="#000" d="M7.0001,9.5007 C7.0001,9.7767 6.7761,10.0007 6.5001,10.0007 C5.1971,10.0007 3.9771,11.0487 3.3911,12.6707 C3.3161,12.8737 3.1251,13.0007 2.9201,13.0007 C2.8631,13.0007 2.8061,12.9907 2.7501,12.9717 C2.4901,12.8767 2.3551,12.5907 2.4491,12.3307 C3.1811,10.3077 4.7711,9.0007 6.5001,9.0007 C6.7761,9.0007 7.0001,9.2247 7.0001,9.5007 M12.5001,24.0007 C11.7711,24.0007 10.8111,23.4147 9.8671,22.3927 C9.7721,22.2897 9.6401,22.2307 9.5001,22.2307 C9.3601,22.2307 9.2281,22.2897 9.1331,22.3927 C8.1891,23.4147 7.2291,24.0007 6.5001,24.0007 C3.4161,24.0007 1.0001,20.0477 1.0001,15.0007 C1.0001,10.6187 3.7971,8.0007 6.5001,8.0007 C7.4741,8.0007 8.3751,8.3437 9.1781,9.0197 C9.3651,9.1757 9.6351,9.1757 9.8221,9.0197 C10.6251,8.3437 11.5261,8.0007 12.5001,8.0007 C15.2031,8.0007 18.0001,10.6187 18.0001,15.0007 C18.0001,20.0477 15.5841,24.0007 12.5001,24.0007 M14.0001,1.0007 C14.0001,3.2067 12.2061,5.0007 10.0001,5.0007 C10.0001,2.7947 11.7941,1.0007 14.0001,1.0007 M12.5001,7.0007 C11.5931,7.0007 10.7441,7.2497 9.9581,7.7147 C9.9201,7.2627 9.8431,6.6567 9.6931,5.9747 C9.7941,5.9867 9.8951,6.0007 10.0001,6.0007 C12.7571,6.0007 15.0001,3.7577 15.0001,1.0007 C15.0001,0.8727 14.9841,0.7497 14.9681,0.6267 L14.9511,0.4947 C14.9271,0.2597 14.7411,0.0737 14.5061,0.0497 L14.3741,0.0327 C14.2511,0.0167 14.1281,0.0007 14.0001,0.0007 C11.5621,0.0007 9.5331,1.7567 9.0941,4.0687 C8.6171,2.9367 7.8941,1.8287 6.7771,1.0847 C6.5491,0.9337 6.2381,0.9927 6.0841,1.2237 C5.9311,1.4527 5.9931,1.7637 6.2231,1.9167 C8.2521,3.2697 8.7981,6.2047 8.9451,7.6537 C8.1871,7.2267 7.3691,7.0007 6.5001,7.0007 C3.3051,7.0007 0.0001,9.9927 0.0001,15.0007 C0.0001,20.7017 2.7941,25.0007 6.5001,25.0007 C7.4141,25.0007 8.4671,24.4527 9.5001,23.4477 C10.5331,24.4527 11.5861,25.0007 12.5001,25.0007 C16.2061,25.0007 19.0001,20.7017 19.0001,15.0007 C19.0001,9.9927 15.6951,7.0007 12.5001,7.0007"/>
    <path fill="#000" d="M18.9591,14.0603 C18.9371,13.7993 18.6931,13.6063 18.4561,13.6033 C18.1951,13.6053 17.9791,13.8083 17.9611,14.0693 C17.6511,18.6643 15.3541,22.0003 12.5001,22.0003 C11.7711,22.0003 10.8111,21.4143 9.8671,20.3923 C9.6791,20.1873 9.3211,20.1873 9.1331,20.3923 C8.1891,21.4143 7.2301,22.0003 6.5001,22.0003 C3.6461,22.0003 1.3491,18.6643 1.0391,14.0693 C1.0221,13.8083 0.8051,13.6053 0.5441,13.6033 C0.2481,13.5833 0.0631,13.7993 0.0411,14.0603 C0.0161,14.3663 0.0001,14.6783 0.0001,15.0003 C0.0001,20.7023 2.7951,25.0003 6.5001,25.0003 C7.4141,25.0003 8.4671,24.4533 9.5001,23.4483 C10.5331,24.4533 11.5861,25.0003 12.5001,25.0003 C16.2051,25.0003 19.0001,20.7023 19.0001,15.0003 C19.0001,14.6783 18.9841,14.3663 18.9591,14.0603" opacity=".24"/>
  </g>
</svg>
