<svg id="Layer_1" data-name="Layer 1" xmlns="http://www.w3.org/2000/svg" viewBox="0 0 500 500"><defs><style>.cls-1{fill:#f9d841;}.cls-2{fill:#faac29;}.cls-3,.cls-6{fill:none;stroke-linecap:round;stroke-linejoin:round;stroke-width:20px;}.cls-3{stroke:#000;}.cls-4{fill:#3bb777;}.cls-5{fill:#239957;}.cls-6{stroke:#fff;}.cls-7{fill:#fff;}</style></defs><title>mango</title><path class="cls-1" d="M382.85,260.81A151.08,151.08,0,0,0,131.62,147.54h0a152,152,0,0,0-12.1,12C46.7,226.84,73.28,327.4,37.51,363-6,406.29-1,473.91,71.69,485.9,233.8,512.63,330.4,375.47,330.4,375.47h0C355.12,348.55,382.85,300.24,382.85,260.81Z"/><path class="cls-2" d="M370.27,200.49c0,.49.07,1,.07,1.47,0,46-32.34,102.32-61.17,133.72,0,0-104.15,147.73-280.16,131.48,10.06,9,24.14,15.68,42.68,18.74C233.8,512.63,330.4,375.47,330.4,375.47c24.72-26.92,52.45-75.23,52.45-114.66A150.68,150.68,0,0,0,370.27,200.49Z"/><path class="cls-3" d="M382.85,260.81A151.08,151.08,0,0,0,131.62,147.54h0a152,152,0,0,0-12.1,12C46.7,226.84,73.28,327.4,37.51,363-6,406.29-1,473.91,71.69,485.9,233.8,512.63,330.4,375.47,330.4,375.47h0C355.12,348.55,382.85,300.24,382.85,260.81Z"/><path class="cls-3" d="M350.26,10.65S344.39,83.85,300,123"/><path class="cls-4" d="M490.23,107.31c-117.17-111.66-165.71,4-165.71,4S378.56,224.48,490.23,107.31Z"/><path class="cls-5" d="M490.23,107.31l-165.71,4S378.56,224.48,490.23,107.31Z"/><path class="cls-3" d="M490.23,107.31c-117.17-111.66-165.71,4-165.71,4S378.56,224.48,490.23,107.31Z"/><path class="cls-6" d="M106,274.25s8.64-58.87,41.16-84.41"/><circle class="cls-7" cx="176.11" cy="169.7" r="12.27"/></svg>