<svg xmlns="http://www.w3.org/2000/svg" viewBox="0 0 128 128"><defs><style>.cls-1{isolation:isolate;}.cls-2{mix-blend-mode:multiply;}.Graphic-Style-2,.cls-3{fill:#302a27;}.cls-4{fill:#c49b83;}.cls-5{fill:#78c17b;}.cls-6{fill:#ed6e4b;}.cls-7{fill:none;}.Graphic-Style-2,.cls-7{stroke:#302a27;stroke-linecap:round;stroke-linejoin:round;stroke-width:2px;}.cls-8{opacity:0.24;}.cls-9{opacity:0.12;}</style></defs><title>orange</title><g class="cls-1"><g id="icons" class="cls-2"><path class="cls-3" d="M32.839,46.76a2,2,0,0,1-1.968-2.35,27.421,27.421,0,0,1,3-8.353A43.059,43.059,0,0,0,20.2,42.6a2,2,0,0,1-3.008-2.459,32.632,32.632,0,0,1,3.664-5.913c.039-.051.08-.1.124-.146C28.925,23.857,43.387,17,57.037,17a30.738,30.738,0,0,1,9.609,1.42,21.656,21.656,0,0,1,3.287,1.38,2,2,0,0,1,1.038,2.114c-.994,5.677-7.25,7.824-13.92,9.271-1.066.529-2.188,1.066-3.345,1.62-6.829,3.27-14.569,6.975-19.273,13.163A2,2,0,0,1,32.839,46.76Z"/><path class="cls-3" d="M57.037,19A28.877,28.877,0,0,1,66.02,20.32,19.854,19.854,0,0,1,69,21.57c-.76,4.34-5.74,6.24-12.6,7.71h-.01c-7.42,3.71-17.66,7.73-23.55,15.48a27.093,27.093,0,0,1,5.62-12c-6.9,1.63-13.83,4-19.46,8.24a30.558,30.558,0,0,1,3.44-5.55c.01-.01.01-.01.02-.01C30.529,24.944,45.027,19,57.037,19m0-4h0c-14.2,0-29.265,7.138-37.578,17.785q-.093.1-.179.215a34.671,34.671,0,0,0-3.888,6.277A4,4,0,0,0,21.406,44.2a36.357,36.357,0,0,1,8.735-4.738,27.8,27.8,0,0,0-1.24,4.6,4,4,0,0,0,7.123,3.118c4.411-5.8,11.92-9.4,18.545-12.57,1.093-.523,2.133-1.021,3.144-1.521,5.1-1.1,13.892-3.21,15.227-10.829a4,4,0,0,0-2.075-4.229,23.627,23.627,0,0,0-3.58-1.506A32.75,32.75,0,0,0,57.037,15Z"/><path class="cls-3" d="M70,111a41,41,0,0,1-5.618-81.618c2.365-1.854,2.983-5.452,3.634-10.631a2,2,0,0,1,1.1-1.543,5.22,5.22,0,0,1,2.253-.454,7.484,7.484,0,0,1,2.506.451A9.553,9.553,0,0,1,76.1,18.332,2,2,0,0,1,76.99,20.2c-.5,4.926-.468,7.79.121,9.417A40.909,40.909,0,0,1,111,70,41.047,41.047,0,0,1,70,111Z"/><path class="cls-3" d="M71.364,18.754a5.474,5.474,0,0,1,1.836.336A7.61,7.61,0,0,1,75,20c-.64,6.36-.46,9.49.78,11.43a38.364,38.364,0,0,1,6.35,1.49A39.021,39.021,0,1,1,65.14,31.3h0C68.55,29.03,69.27,24.81,70,19a3.314,3.314,0,0,1,1.364-.246m0-4a7.2,7.2,0,0,0-3.141.663A4,4,0,0,0,66.031,18.5c-.619,4.93-1.172,7.606-2.525,8.986a42.98,42.98,0,1,0,19.867,1.63,42.345,42.345,0,0,0-4.623-1.225,39.775,39.775,0,0,1,.23-7.493,4,4,0,0,0-1.773-3.737A11.668,11.668,0,0,0,74.493,15.3a9.462,9.462,0,0,0-3.128-.551Z"/><g id="_Group_" data-name="&lt;Group&gt;"><path class="cls-4" d="M75.78,31.43c-.6-.09-1.21-.17-1.82-.23-.32-.03-.63-.06-.94-.08a.97.97,0,0,0-.17-.01c-.46-.04-.92-.07-1.39-.08S70.49,31,70,31a38.892,38.892,0,0,0-4.86.3C68.55,29.03,69.27,24.81,70,19a4.336,4.336,0,0,1,3.2.09A7.61,7.61,0,0,1,75,20C74.36,26.36,74.54,29.49,75.78,31.43Z"/><path class="cls-5" d="M38.46,32.76c6.36-1.49,12.7-2.36,17.93-3.48-7.42,3.71-17.66,7.73-23.55,15.48A27.094,27.094,0,0,1,38.46,32.76Z"/><path class="cls-5" d="M66.02,20.32A19.862,19.862,0,0,1,69,21.57c-.76,4.34-5.74,6.24-12.6,7.71h-.01c-5.23,1.12-11.57,1.99-17.93,3.48-6.9,1.63-13.83,4-19.46,8.24a30.557,30.557,0,0,1,3.44-5.55c.01-.01.01-.01.02-.01C32.7,22.12,53.3,16.13,66.02,20.32Z"/><path class="cls-6" d="M82.13,32.92A39.344,39.344,0,1,1,70,31a39.468,39.468,0,0,1,12.13,1.92Z"/><path class="cls-7" d="M75.78,31.43a38.349,38.349,0,0,1,6.35,1.49A39.344,39.344,0,1,1,70,31,38.09,38.09,0,0,1,75.78,31.43Z"/><path class="cls-7" d="M75.78,31.43C74.54,29.49,74.36,26.36,75,20a7.609,7.609,0,0,0-1.8-.91A4.336,4.336,0,0,0,70,19c-.73,5.81-1.45,10.03-4.86,12.3"/><path class="cls-7" d="M56.39,29.28c-5.23,1.12-11.57,1.99-17.93,3.48-6.9,1.63-13.83,4-19.46,8.24a30.557,30.557,0,0,1,3.44-5.55c.01-.01.01-.01.02-.01C32.7,22.12,53.3,16.13,66.02,20.32A19.862,19.862,0,0,1,69,21.57c-.76,4.34-5.74,6.24-12.6,7.71"/><path class="cls-7" d="M56.4,29.28h-.01c-7.42,3.71-17.66,7.73-23.55,15.48a27.094,27.094,0,0,1,5.62-12"/></g><g class="cls-8"><circle class="cls-3" cx="60" cy="48" r="2"/><circle class="cls-3" cx="60" cy="60" r="2"/><circle class="cls-3" cx="48" cy="57" r="2"/></g><g class="cls-9"><path class="Graphic-Style-2" d="M109,70A39.01,39.01,0,0,1,35.7,88.59c1.97.05,3.96,1.52,5.44,3.02,1.92,1.94,4.07,4.25,6.8,4.06.84-.06,1.65-.37,2.49-.42,1.93-.13,3.67,1.06,5.34,2.04A30.816,30.816,0,0,0,98.88,84.75a6.818,6.818,0,0,0,.99-4.38c-.24-1.1-.95-2.05-1.15-3.15a7,7,0,0,1,.3-3.04q1.095-4.5,2.2-8.98a8.025,8.025,0,0,0,.25-4.28c-.66-2.1-2.88-3.28-4.11-5.12-1.46-2.18-1.35-5.01-1.66-7.62s-1.46-5.57-4-6.27c-.63-.17-1.3-.19-1.92-.4a5.909,5.909,0,0,1-2.15-1.49,31.793,31.793,0,0,1-5.5-7.1A39.016,39.016,0,0,1,109,70Z"/><path class="Graphic-Style-2" d="M69,21.57C67.04,32.82,36.62,27.71,19,41a30.557,30.557,0,0,1,3.44-5.55c.01-.01.01-.01.02-.01a40.187,40.187,0,0,1,10.03-5.67c5.29-2.08,10.95-3.01,16.56-3.94q5-.81,9.98-1.64a11.264,11.264,0,0,0,4.21-1.27,14.873,14.873,0,0,0,2.78-2.6A19.854,19.854,0,0,1,69,21.57Z"/><path class="Graphic-Style-2" d="M75.78,31.43c-.6-.09-1.21-.17-1.82-.23-.31-.03-.63-.06-.94-.08a.97.97,0,0,0-.17-.01c-.46-.04-.93-.07-1.39-.08-.14-.01-.28-.02-.42-.02.11-1.23,1.6-2.88,1.96-4.01a17.047,17.047,0,0,0,.2-7.91A7.61,7.61,0,0,1,75,20C74.36,26.36,74.54,29.49,75.78,31.43Z"/></g></g></g></svg>